<?xml version="1.0" ?>
<!-- Uploaded to: SVG Repo, www.svgrepo.com, Generator: SVG Repo Mixer Tools -->
<svg width="800px" height="800px" viewBox="0 0 512 512" version="1.1" xml:space="preserve" xmlns="http://www.w3.org/2000/svg" xmlns:xlink="http://www.w3.org/1999/xlink">
<style type="text/css">
	.st0{display:none;}
	.st1{fill:#474747;}
</style>
<g class="st0" id="Layer_1"/>
<g id="Layer_2">
<g>
<path class="st1" d="M382.64,44.65c-2.02-1.41-4.58-1.67-6.82-0.66c-0.14,0.06-14.56,5.83-55.65,3.6    c-13.5-0.74-23.9,2.92-30.89,10.84c-9.78,11.07-9.96,27.23-8.6,38.2c-9.02,6.01-17.74,13.06-24.68,21.1    c-6.94-8.04-15.67-15.09-24.69-21.1c1.36-10.97,1.18-27.13-8.6-38.2c-6.99-7.92-17.38-11.56-30.89-10.83    c-41.08,2.23-55.5-3.54-55.55-3.56c-2.24-1.01-4.85-0.76-6.87,0.64c-2.02,1.41-3.15,3.77-2.98,6.22    c0.11,1.55,2.89,38.27,28.49,59.79c11.83,9.95,26.46,14.96,43.57,14.96c3.24,0,6.57-0.18,9.98-0.54c3.84-0.41,6.63-3.85,6.23-7.69    c-0.4-3.85-3.84-6.62-7.69-6.23c-17.5,1.84-31.98-1.91-43.02-11.16c-13.74-11.51-19.59-29.21-22-40.2    c9.46,1.66,25.45,3.11,50.6,1.75c9.01-0.49,15.62,1.57,19.64,6.12c4.77,5.41,5.78,13.84,5.64,20.77    c-18.59-10.29-35.23-15.92-36.5-16.34c-3.67-1.22-7.63,0.76-8.85,4.43c-1.22,3.67,0.76,7.63,4.43,8.85    c0.34,0.11,22.11,7.49,42.89,20.47c0.09,0.06,0.18,0.12,0.28,0.17c11.08,6.95,21.85,15.5,28.9,25.39v32.19c0,3.87,3.13,7,7,7    s7-3.13,7-7v-32.19c7.06-9.89,17.83-18.44,28.91-25.39c0.09-0.05,0.18-0.11,0.27-0.17c20.78-12.98,42.55-20.36,42.89-20.47    c3.67-1.22,5.65-5.18,4.43-8.85c-1.22-3.67-5.19-5.65-8.85-4.43c-1.27,0.42-17.91,6.05-36.5,16.34    c-0.15-6.93,0.87-15.37,5.64-20.77c4.02-4.55,10.63-6.6,19.63-6.12c25.15,1.37,41.14-0.08,50.6-1.75    c-2.41,10.99-8.26,28.69-22,40.2c-11.04,9.25-25.51,13-43.02,11.16c-3.84-0.38-7.29,2.38-7.69,6.23s2.38,7.29,6.23,7.69    c3.42,0.36,6.74,0.54,9.98,0.54c17.12,0,31.74-5.01,43.57-14.96c25.61-21.52,28.39-58.23,28.49-59.79    C385.75,48.44,384.66,46.06,382.64,44.65z"/>
<path class="st1" d="M330.49,181.6H181.51c-9.49,0-17.21,7.72-17.21,17.21v24.67c0,9.49,7.72,17.21,17.21,17.21h13.97h114.03    v160.37c0,29.51-24.01,53.52-53.52,53.52s-53.52-24.01-53.52-53.52V262.6c0-3.87-3.13-7-7-7s-7,3.13-7,7v138.46    c0,37.23,30.29,67.52,67.52,67.52s67.52-30.29,67.52-67.52V240.7h6.97c9.49,0,17.21-7.72,17.21-17.21v-24.67    C347.7,189.32,339.98,181.6,330.49,181.6z M333.7,223.48c0,1.77-1.44,3.21-3.21,3.21h-13.97H195.48h-13.97    c-1.77,0-3.21-1.44-3.21-3.21v-24.67c0-1.77,1.44-3.21,3.21-3.21h148.98c1.77,0,3.21,1.44,3.21,3.21V223.48z"/>
<path class="st1" d="M292.1,367.51c-0.38-0.26-0.79-0.47-1.21-0.65c-0.43-0.17-0.87-0.31-1.31-0.4c-0.91-0.18-1.84-0.18-2.74,0    c-0.45,0.09-0.89,0.23-1.31,0.4c-0.42,0.18-0.83,0.39-1.21,0.65c-0.38,0.25-0.74,0.54-1.06,0.87c-1.3,1.3-2.05,3.1-2.05,4.95    c0,1.84,0.75,3.64,2.05,4.94c0.32,0.33,0.68,0.62,1.06,0.87c0.38,0.26,0.79,0.47,1.21,0.65c0.42,0.17,0.86,0.31,1.31,0.4    c0.45,0.09,0.91,0.13,1.37,0.13s0.92-0.04,1.37-0.13c0.44-0.09,0.88-0.23,1.31-0.4c0.42-0.18,0.83-0.39,1.21-0.65    c0.38-0.25,0.74-0.54,1.06-0.87c1.3-1.3,2.05-3.1,2.05-4.94c0-1.85-0.75-3.65-2.05-4.95C292.84,368.05,292.48,367.76,292.1,367.51    z"/>
<path class="st1" d="M288.21,328.6h-64.42c-3.87,0-7,3.13-7,7v65.47c0,21.62,17.59,39.21,39.21,39.21s39.21-17.59,39.21-39.21    v-3.77c0-3.87-3.13-7-7-7s-7,3.13-7,7v3.77c0,13.9-11.31,25.21-25.21,25.21s-25.21-11.31-25.21-25.21V342.6h50.42v9.91    c0,3.87,3.13,7,7,7s7-3.13,7-7V335.6C295.21,331.73,292.08,328.6,288.21,328.6z"/>
</g>
</g>
</svg>