<?xml version="1.0" encoding="UTF-8"?>
<svg xmlns="http://www.w3.org/2000/svg" xmlns:xlink="http://www.w3.org/1999/xlink" viewBox="0 0 1080 1080">
  <defs>
    <style>
      .cls-1, .cls-2, .cls-3 {
        fill: #fff;
      }

      .cls-1, .cls-4, .cls-5 {
        mix-blend-mode: multiply;
      }

      .cls-6 {
        mask: url(#mask);
      }

      .cls-7 {
        isolation: isolate;
      }

      .cls-3 {
        opacity: .1;
      }

      .cls-4 {
        fill: #e0e0e0;
        opacity: .6;
      }

      .cls-5 {
        fill: #e6e6e6;
        opacity: .25;
      }
    </style>
    <mask id="mask" x="255.57" y="157.44" width="566.43" height="414.86" maskUnits="userSpaceOnUse">
      <path class="cls-1" d="M540.11,425.14c124.53,0,230.28,51.01,268.23,121.9,9.08-17.91,13.89-36.99,13.65-56.76-1.21-99.27-128.98-178.19-285.39-176.27-156.41,1.92-282.23,83.95-281.02,183.22.23,19.02,5.12,37.29,13.96,54.39,35.78-73.26,143.38-126.47,270.57-126.47Z"/>
    </mask>
  </defs>
  <g class="cls-7">
    <g id="Layer_1" data-name="Layer 1">
      <g>
        <g>
          <path class="cls-2" d="M623.55,605.49c-33.86,0-67.69-5.24-99.81-15.91-24.31-8.07-47.61-19.08-70.14-29.72-17.59-8.31-35.78-16.91-54.07-23.89-14.35-5.48-28.1-9.57-41.22-12.31-1.21,7.04-1.87,13.85-1.87,20.4,0,100.73,82.22,182.39,183.64,182.39,84.77,0,156.11-57.06,177.26-134.61-30.36,9.05-62.08,13.65-93.78,13.65Z"/>
          <path class="cls-2" d="M533.37,572.3c23.16-25.09,57.26-43.92,101.74-56.12,19.6-5.37,39.72-9.26,59.18-13.02,7.07-1.37,14.22-2.76,21.38-4.22-31.84-100.12-148.85-236.34-175.6-341.5-27.26,109.43-148.29,247.17-177.34,347.33,14,2.94,28.59,7.3,43.72,13.08,18.98,7.25,37.51,16,55.43,24.47,22.01,10.4,44.77,21.15,67.96,28.85,1.17.39,2.35.75,3.52,1.13Z"/>
          <path class="cls-2" d="M697.98,522.21c-19.1,3.69-38.85,7.51-57.73,12.69-36.38,9.98-64.96,24.5-85.37,43.33,54.91,12.87,113.51,9.84,166.97-8.17,1.22-8.49,1.86-17.17,1.86-25.99,0-8.36-1.07-17.17-3.02-26.35-7.61,1.56-15.21,3.04-22.71,4.49Z"/>
          <g class="cls-6">
            <path class="cls-5" d="M533.37,572.3c23.16-25.09,57.26-43.92,101.74-56.12,19.6-5.37,39.72-9.26,59.18-13.02,7.07-1.37,14.22-2.76,21.38-4.22-31.84-100.12-148.85-236.34-175.6-341.5-27.26,109.43-148.29,247.17-177.34,347.33,14,2.94,28.59,7.3,43.72,13.08,18.98,7.25,37.51,16,55.43,24.47,22.01,10.4,44.77,21.15,67.96,28.85,1.17.39,2.35.75,3.52,1.13Z"/>
          </g>
          <path class="cls-4" d="M541.87,313.96c27.04,0,53.21,2.27,78.5,6.99-34.28-56.24-67.71-114.03-80.29-163.5-12.52,50.24-45.95,108.34-80.02,164.14,25.59-4.84,54.42-7.62,81.81-7.62Z"/>
        </g>
        <g>
          <circle class="cls-3" cx="271.54" cy="768.7" r="33.4"/>
          <rect class="cls-2" x="258.64" y="794.18" width="25.81" height="93.96"/>
          <path class="cls-2" d="M303.38,888.14v-93.96h24.09v22.89l-2.58-3.79c1.38-7.23,4.7-12.56,9.98-16.01,5.28-3.44,11.59-5.16,18.93-5.16,7.8,0,14.66,1.98,20.57,5.94,5.91,3.96,9.61,9.27,11.1,15.92l-7.4.69c3.1-7.69,7.51-13.36,13.25-17.04,5.74-3.67,12.45-5.51,20.14-5.51,6.77,0,12.76,1.49,17.98,4.47,5.22,2.98,9.32,7.14,12.31,12.48,2.98,5.34,4.47,11.56,4.47,18.67v60.41h-25.81v-54.9c0-3.67-.66-6.82-1.98-9.47-1.32-2.64-3.18-4.7-5.59-6.19-2.41-1.49-5.33-2.24-8.78-2.24s-6.22.75-8.69,2.24c-2.47,1.49-4.36,3.56-5.68,6.19-1.32,2.64-1.98,5.8-1.98,9.47v54.9h-25.81v-54.9c0-3.67-.66-6.82-1.98-9.47-1.32-2.64-3.18-4.7-5.59-6.19-2.41-1.49-5.34-2.24-8.78-2.24s-6.23.75-8.69,2.24c-2.47,1.49-4.36,3.56-5.68,6.19-1.32,2.64-1.98,5.8-1.98,9.47v54.9h-25.81Z"/>
          <path class="cls-2" d="M463.25,922.56v-128.38h24.09v17.9l-2.24-5.16c3.1-4.7,7.31-8.35,12.65-10.93,5.33-2.58,11.44-3.87,18.33-3.87,8.95,0,17.04,2.18,24.27,6.54,7.23,4.36,12.96,10.24,17.21,17.64,4.24,7.4,6.37,15.69,6.37,24.87s-2.09,17.32-6.28,24.78c-4.19,7.46-9.89,13.37-17.12,17.73-7.23,4.36-15.43,6.54-24.61,6.54-6.43,0-12.36-1.18-17.81-3.53-5.45-2.35-9.84-5.82-13.17-10.41l4.13-5.34v51.63h-25.81ZM512.82,866.97c4.82,0,9.06-1.09,12.73-3.27,3.67-2.18,6.54-5.22,8.6-9.12,2.06-3.9,3.1-8.37,3.1-13.42s-1.03-9.49-3.1-13.34c-2.07-3.84-4.93-6.88-8.6-9.12-3.67-2.24-7.92-3.36-12.73-3.36s-8.69,1.09-12.31,3.27-6.43,5.22-8.43,9.12c-2.01,3.9-3.01,8.38-3.01,13.42s1,9.52,3.01,13.42c2.01,3.9,4.82,6.94,8.43,9.12,3.61,2.18,7.72,3.27,12.31,3.27Z"/>
          <path class="cls-2" d="M608.16,890.21c-6.77,0-12.62-1.09-17.55-3.27-4.93-2.18-8.72-5.31-11.36-9.38-2.64-4.07-3.96-8.92-3.96-14.54,0-5.28,1.2-9.95,3.61-14.03,2.41-4.07,6.11-7.49,11.1-10.24s11.21-4.7,18.67-5.85l28.74-4.65v18.93l-24.09,4.3c-3.67.69-6.48,1.87-8.43,3.53-1.95,1.66-2.93,4.04-2.93,7.14,0,2.87,1.09,5.11,3.27,6.71,2.18,1.61,4.88,2.41,8.09,2.41,4.24,0,7.97-.92,11.19-2.75,3.21-1.83,5.71-4.33,7.48-7.48,1.78-3.16,2.67-6.63,2.67-10.41v-24.44c0-3.56-1.41-6.54-4.22-8.95-2.81-2.41-6.63-3.61-11.44-3.61s-8.63,1.26-12.13,3.79c-3.5,2.53-6.05,5.85-7.66,9.98l-20.65-9.81c1.83-5.28,4.76-9.81,8.78-13.6,4.01-3.79,8.83-6.71,14.46-8.78,5.62-2.07,11.76-3.1,18.41-3.1,7.92,0,14.91,1.44,21,4.3,6.08,2.87,10.81,6.86,14.2,11.96,3.38,5.11,5.08,11.05,5.08,17.81v61.95h-24.09v-15.15l5.85-1.03c-2.75,4.13-5.8,7.55-9.12,10.24-3.33,2.7-7.06,4.71-11.19,6.02-4.13,1.32-8.72,1.98-13.77,1.98Z"/>
          <path class="cls-2" d="M725.53,890.21c-9.41,0-17.87-2.15-25.38-6.46-7.52-4.3-13.48-10.18-17.9-17.64-4.42-7.46-6.63-15.83-6.63-25.13s2.18-17.64,6.54-25.04c4.36-7.4,10.33-13.22,17.9-17.47,7.57-4.24,16.06-6.37,25.47-6.37,7,0,13.48,1.2,19.45,3.61,5.96,2.41,11.07,5.76,15.32,10.07,4.24,4.3,7.28,9.38,9.12,15.23l-22.37,9.64c-1.61-4.7-4.33-8.43-8.18-11.19-3.84-2.75-8.29-4.13-13.34-4.13-4.47,0-8.46,1.09-11.96,3.27-3.5,2.18-6.25,5.22-8.26,9.12-2.01,3.9-3.01,8.38-3.01,13.42s1,9.52,3.01,13.42c2.01,3.9,4.76,6.94,8.26,9.12,3.5,2.18,7.49,3.27,11.96,3.27,5.16,0,9.64-1.38,13.42-4.13,3.79-2.75,6.48-6.48,8.09-11.19l22.37,9.81c-1.72,5.51-4.71,10.44-8.95,14.8-4.25,4.36-9.35,7.77-15.32,10.24-5.97,2.47-12.51,3.7-19.62,3.7Z"/>
          <path class="cls-2" d="M829.81,889.17c-11.36,0-20.16-3.07-26.42-9.21-6.25-6.14-9.38-14.71-9.38-25.73v-37.69h-15.83v-22.37h.86c4.82,0,8.52-1.21,11.1-3.61,2.58-2.41,3.87-6.02,3.87-10.84v-6.88h25.81v21.34h22.03v22.37h-22.03v35.97c0,3.21.57,5.88,1.72,8,1.14,2.12,2.93,3.7,5.33,4.73,2.41,1.03,5.39,1.55,8.95,1.55.8,0,1.72-.06,2.75-.17,1.03-.11,2.12-.23,3.27-.34v21.86c-1.72.23-3.67.46-5.85.69-2.18.23-4.25.34-6.19.34Z"/>
          <circle class="cls-2" cx="271.54" cy="768.7" r="16.86"/>
        </g>
      </g>
    </g>
  </g>
</svg>