<?xml version="1.0" encoding="UTF-8"?>
<svg xmlns="http://www.w3.org/2000/svg" xmlns:xlink="http://www.w3.org/1999/xlink" viewBox="0 0 833.76 249.49">
  <defs>
    <style>
      .cls-1 {
        fill: #fff;
      }

      .cls-1, .cls-2, .cls-3 {
        mix-blend-mode: multiply;
      }

      .cls-2 {
        opacity: .6;
      }

      .cls-2, .cls-3, .cls-4 {
        fill: #02deff;
      }

      .cls-5 {
        opacity: .1;
      }

      .cls-5, .cls-6 {
        fill: #02de00;
      }

      .cls-7 {
        mask: url(#mask);
      }

      .cls-8 {
        isolation: isolate;
      }

      .cls-9 {
        fill: #0292d1;
      }

      .cls-10 {
        fill: #3dff3b;
      }

      .cls-3 {
        opacity: .25;
      }
    </style>
    <mask id="mask" x="10.73" y="27.72" width="174.87" height="128.07" maskUnits="userSpaceOnUse">
      <path class="cls-1" d="M98.57,110.36c38.44,0,71.09,15.75,82.81,37.63,2.8-5.53,4.29-11.42,4.21-17.52-.37-30.65-39.82-55.01-88.1-54.42S10.36,101.97,10.73,132.62c.07,5.87,1.58,11.51,4.31,16.79,11.05-22.62,44.26-39.04,83.53-39.04Z"/>
    </mask>
  </defs>
  <g class="cls-8">
    <g id="Layer_1" data-name="Layer 1">
      <g>
        <g>
          <path class="cls-6" d="M124.33,166.04c-10.45,0-20.9-1.62-30.81-4.91-7.5-2.49-14.7-5.89-21.65-9.18-5.43-2.57-11.05-5.22-16.69-7.37-4.43-1.69-8.67-2.96-12.73-3.8-.38,2.17-.58,4.27-.58,6.3,0,31.1,25.38,56.31,56.69,56.31,26.17,0,48.2-17.61,54.72-41.56-9.37,2.79-19.16,4.21-28.95,4.21Z"/>
          <path class="cls-4" d="M96.49,155.8c7.15-7.75,17.68-13.56,31.41-17.32,6.05-1.66,12.26-2.86,18.27-4.02,2.18-.42,4.39-.85,6.6-1.3-9.83-30.91-45.95-72.96-54.21-105.43-8.42,33.78-45.78,76.31-54.75,107.23,4.32.91,8.82,2.25,13.5,4.04,5.86,2.24,11.58,4.94,17.11,7.56,6.79,3.21,13.82,6.53,20.98,8.91.36.12.72.23,1.09.35Z"/>
          <path class="cls-10" d="M147.31,140.33c-5.9,1.14-11.99,2.32-17.82,3.92-11.23,3.08-20.05,7.56-26.36,13.38,16.95,3.97,35.04,3.04,51.55-2.52.38-2.62.58-5.3.58-8.02,0-2.58-.33-5.3-.93-8.13-2.35.48-4.69.94-7.01,1.39Z"/>
          <g class="cls-7">
            <path class="cls-3" d="M96.49,155.8c7.15-7.75,17.68-13.56,31.41-17.32,6.05-1.66,12.26-2.86,18.27-4.02,2.18-.42,4.39-.85,6.6-1.3-9.83-30.91-45.95-72.96-54.21-105.43-8.42,33.78-45.78,76.31-54.75,107.23,4.32.91,8.82,2.25,13.5,4.04,5.86,2.24,11.58,4.94,17.11,7.56,6.79,3.21,13.82,6.53,20.98,8.91.36.12.72.23,1.09.35Z"/>
          </g>
          <path class="cls-2" d="M99.12,76.04c8.35,0,16.43.7,24.23,2.16-10.58-17.36-20.9-35.2-24.79-50.48-3.86,15.51-14.19,33.45-24.7,50.67,7.9-1.49,16.8-2.35,25.26-2.35Z"/>
        </g>
        <g>
          <circle class="cls-5" cx="221.57" cy="64.52" r="33.4"/>
          <rect class="cls-9" x="208.66" y="89.99" width="25.81" height="93.96"/>
          <path class="cls-9" d="M253.41,183.96v-93.96h24.09v22.89l-2.58-3.79c1.38-7.23,4.7-12.56,9.98-16.01,5.28-3.44,11.59-5.16,18.93-5.16,7.8,0,14.66,1.98,20.57,5.94,5.91,3.96,9.61,9.27,11.1,15.92l-7.4.69c3.1-7.69,7.51-13.36,13.25-17.04,5.74-3.67,12.45-5.51,20.14-5.51,6.77,0,12.76,1.49,17.98,4.47,5.22,2.98,9.32,7.14,12.31,12.48,2.98,5.34,4.47,11.56,4.47,18.67v60.41h-25.81v-54.9c0-3.67-.66-6.82-1.98-9.47-1.32-2.64-3.18-4.7-5.59-6.19-2.41-1.49-5.33-2.24-8.78-2.24s-6.22.75-8.69,2.24c-2.47,1.49-4.36,3.56-5.68,6.19-1.32,2.64-1.98,5.8-1.98,9.47v54.9h-25.81v-54.9c0-3.67-.66-6.82-1.98-9.47-1.32-2.64-3.18-4.7-5.59-6.19-2.41-1.49-5.34-2.24-8.78-2.24s-6.23.75-8.69,2.24c-2.47,1.49-4.36,3.56-5.68,6.19-1.32,2.64-1.98,5.8-1.98,9.47v54.9h-25.81Z"/>
          <path class="cls-9" d="M413.28,218.38V89.99h24.09v17.9l-2.24-5.16c3.1-4.7,7.31-8.35,12.65-10.93,5.33-2.58,11.44-3.87,18.33-3.87,8.95,0,17.04,2.18,24.27,6.54,7.23,4.36,12.96,10.24,17.21,17.64,4.24,7.4,6.37,15.69,6.37,24.87s-2.09,17.32-6.28,24.78c-4.19,7.46-9.89,13.37-17.12,17.73-7.23,4.36-15.43,6.54-24.61,6.54-6.43,0-12.36-1.18-17.81-3.53-5.45-2.35-9.84-5.82-13.17-10.41l4.13-5.34v51.63h-25.81ZM462.85,162.79c4.82,0,9.06-1.09,12.73-3.27,3.67-2.18,6.54-5.22,8.6-9.12,2.06-3.9,3.1-8.37,3.1-13.42s-1.03-9.49-3.1-13.34c-2.07-3.84-4.93-6.88-8.6-9.12-3.67-2.24-7.92-3.36-12.73-3.36s-8.69,1.09-12.31,3.27-6.43,5.22-8.43,9.12c-2.01,3.9-3.01,8.38-3.01,13.42s1,9.52,3.01,13.42c2.01,3.9,4.82,6.94,8.43,9.12,3.61,2.18,7.72,3.27,12.31,3.27Z"/>
          <path class="cls-9" d="M558.19,186.02c-6.77,0-12.62-1.09-17.55-3.27-4.93-2.18-8.72-5.31-11.36-9.38-2.64-4.07-3.96-8.92-3.96-14.54,0-5.28,1.2-9.95,3.61-14.03,2.41-4.07,6.11-7.49,11.1-10.24s11.21-4.7,18.67-5.85l28.74-4.65v18.93l-24.09,4.3c-3.67.69-6.48,1.87-8.43,3.53-1.95,1.66-2.93,4.04-2.93,7.14,0,2.87,1.09,5.11,3.27,6.71,2.18,1.61,4.88,2.41,8.09,2.41,4.24,0,7.97-.92,11.19-2.75,3.21-1.83,5.71-4.33,7.48-7.48,1.78-3.16,2.67-6.63,2.67-10.41v-24.44c0-3.56-1.41-6.54-4.22-8.95-2.81-2.41-6.63-3.61-11.44-3.61s-8.63,1.26-12.13,3.79c-3.5,2.53-6.05,5.85-7.66,9.98l-20.65-9.81c1.83-5.28,4.76-9.81,8.78-13.6,4.01-3.79,8.83-6.71,14.46-8.78,5.62-2.07,11.76-3.1,18.41-3.1,7.92,0,14.91,1.44,21,4.3,6.08,2.87,10.81,6.86,14.2,11.96,3.38,5.11,5.08,11.05,5.08,17.81v61.95h-24.09v-15.15l5.85-1.03c-2.75,4.13-5.8,7.55-9.12,10.24-3.33,2.7-7.06,4.71-11.19,6.02-4.13,1.32-8.72,1.98-13.77,1.98Z"/>
          <path class="cls-9" d="M675.55,186.02c-9.41,0-17.87-2.15-25.38-6.46-7.52-4.3-13.48-10.18-17.9-17.64-4.42-7.46-6.63-15.83-6.63-25.13s2.18-17.64,6.54-25.04c4.36-7.4,10.33-13.22,17.9-17.47,7.57-4.24,16.06-6.37,25.47-6.37,7,0,13.48,1.2,19.45,3.61,5.96,2.41,11.07,5.76,15.32,10.07,4.24,4.3,7.28,9.38,9.12,15.23l-22.37,9.64c-1.61-4.7-4.33-8.43-8.18-11.19-3.84-2.75-8.29-4.13-13.34-4.13-4.47,0-8.46,1.09-11.96,3.27-3.5,2.18-6.25,5.22-8.26,9.12-2.01,3.9-3.01,8.38-3.01,13.42s1,9.52,3.01,13.42c2.01,3.9,4.76,6.94,8.26,9.12,3.5,2.18,7.49,3.27,11.96,3.27,5.16,0,9.64-1.38,13.42-4.13,3.79-2.75,6.48-6.48,8.09-11.19l22.37,9.81c-1.72,5.51-4.71,10.44-8.95,14.8-4.25,4.36-9.35,7.77-15.32,10.24-5.97,2.47-12.51,3.7-19.62,3.7Z"/>
          <path class="cls-9" d="M779.84,184.99c-11.36,0-20.16-3.07-26.42-9.21-6.25-6.14-9.38-14.71-9.38-25.73v-37.69h-15.83v-22.37h.86c4.82,0,8.52-1.21,11.1-3.61,2.58-2.41,3.87-6.02,3.87-10.84v-6.88h25.81v21.34h22.03v22.37h-22.03v35.97c0,3.21.57,5.88,1.72,8,1.14,2.12,2.93,3.7,5.33,4.73,2.41,1.03,5.39,1.55,8.95,1.55.8,0,1.72-.06,2.75-.17,1.03-.11,2.12-.23,3.27-.34v21.86c-1.72.23-3.67.46-5.85.69-2.18.23-4.25.34-6.19.34Z"/>
          <circle class="cls-6" cx="221.57" cy="64.52" r="16.86"/>
        </g>
      </g>
    </g>
  </g>
</svg>