<?xml version="1.0" encoding="UTF-8"?>
<svg xmlns="http://www.w3.org/2000/svg" xmlns:xlink="http://www.w3.org/1999/xlink" viewBox="0 0 1080 1080">
  <defs>
    <style>
      .cls-1, .cls-2 {
        fill: #fff;
      }

      .cls-1, .cls-3, .cls-4 {
        mix-blend-mode: multiply;
      }

      .cls-5 {
        mask: url(#mask);
      }

      .cls-6 {
        isolation: isolate;
      }

      .cls-3 {
        fill: #e0e0e0;
        opacity: .6;
      }

      .cls-4 {
        fill: #e6e6e6;
        opacity: .25;
      }
    </style>
    <mask id="mask" x="79.64" y="79.64" width="916.53" height="671.28" maskUnits="userSpaceOnUse">
      <path class="cls-1" d="M540.05,512.8c201.49,0,372.61,82.53,434.02,197.24,14.69-28.98,22.48-59.86,22.09-91.85-1.95-160.63-208.7-288.32-461.79-285.22-253.08,3.11-456.67,135.84-454.71,296.46.37,30.78,8.29,60.34,22.59,88.01,57.89-118.54,232-204.64,437.81-204.64Z"/>
    </mask>
  </defs>
  <g class="cls-6">
    <g id="Layer_1" data-name="Layer 1">
      <g>
        <path class="cls-2" d="M675.08,804.63c-54.79,0-109.53-8.49-161.51-25.74-39.34-13.06-77.03-30.87-113.49-48.1-28.46-13.45-57.89-27.36-87.48-38.65-23.22-8.87-45.46-15.49-66.7-19.91-1.97,11.38-3.03,22.4-3.03,33,0,162.99,133.03,295.13,297.14,295.13,137.17,0,252.61-92.32,286.82-217.81-49.13,14.65-100.45,22.09-151.74,22.09Z"/>
        <path class="cls-2" d="M529.16,750.93c37.48-40.59,92.65-71.07,164.63-90.8,31.71-8.69,64.27-14.99,95.76-21.07,11.45-2.21,23.01-4.46,34.59-6.83-51.52-162-240.86-382.43-284.14-552.58-44.11,177.07-239.94,399.95-286.95,562.01,22.66,4.76,46.25,11.82,70.74,21.17,30.71,11.73,60.7,25.9,89.7,39.6,35.61,16.83,72.44,34.23,109.97,46.69,1.89.63,3.8,1.22,5.7,1.82Z"/>
        <path class="cls-2" d="M795.5,669.87c-30.91,5.98-62.87,12.15-93.41,20.53-58.86,16.14-105.11,39.64-138.14,70.12,88.85,20.82,183.67,15.92,270.18-13.22,1.97-13.74,3.02-27.78,3.02-42.06,0-13.53-1.74-27.79-4.89-42.63-12.32,2.53-24.6,4.92-36.75,7.27Z"/>
        <g class="cls-5">
          <path class="cls-4" d="M529.16,750.93c37.48-40.59,92.65-71.07,164.63-90.8,31.71-8.69,64.27-14.99,95.76-21.07,11.45-2.21,23.01-4.46,34.59-6.83-51.52-162-240.86-382.43-284.14-552.58-44.11,177.07-239.94,399.95-286.95,562.01,22.66,4.76,46.25,11.82,70.74,21.17,30.71,11.73,60.7,25.9,89.7,39.6,35.61,16.83,72.44,34.23,109.97,46.69,1.89.63,3.8,1.22,5.7,1.82Z"/>
        </g>
        <path class="cls-3" d="M542.9,332.9c43.75,0,86.1,3.67,127.02,11.31-55.47-91-109.56-184.5-129.92-264.56-20.25,81.3-74.35,175.3-129.48,265.59,41.41-7.83,88.05-12.34,132.38-12.34Z"/>
      </g>
    </g>
  </g>
</svg>