<?xml version="1.0" encoding="UTF-8"?>
<svg xmlns="http://www.w3.org/2000/svg" xmlns:xlink="http://www.w3.org/1999/xlink" viewBox="0 0 1080 1080">
  <defs>
    <style>
      .cls-1 {
        fill: #fff;
      }

      .cls-1, .cls-2, .cls-3 {
        mix-blend-mode: multiply;
      }

      .cls-2 {
        opacity: .6;
      }

      .cls-2, .cls-3, .cls-4 {
        fill: #02deff;
      }

      .cls-5 {
        mask: url(#mask);
      }

      .cls-6 {
        isolation: isolate;
      }

      .cls-7 {
        fill: #3dff3b;
      }

      .cls-3 {
        opacity: .25;
      }

      .cls-8 {
        fill: #02de00;
      }
    </style>
    <mask id="mask" x="79.53" y="79.53" width="916.76" height="671.45" maskUnits="userSpaceOnUse">
      <path class="cls-1" d="M540.05,512.79c201.54,0,372.7,82.55,434.13,197.29,14.69-28.98,22.48-59.87,22.09-91.87-1.95-160.67-208.75-288.4-461.9-285.29-253.15,3.11-456.78,135.87-454.83,296.54.37,30.78,8.29,60.35,22.59,88.03,57.91-118.57,232.06-204.69,437.92-204.69Z"/>
    </mask>
  </defs>
  <g class="cls-6">
    <g id="Layer_1" data-name="Layer 1">
      <g>
        <path class="cls-8" d="M675.11,804.7c-54.8,0-109.56-8.49-161.55-25.75-39.35-13.06-77.05-30.88-113.52-48.11-28.47-13.45-57.91-27.36-87.51-38.66-23.22-8.87-45.47-15.5-66.72-19.92-1.97,11.39-3.03,22.41-3.03,33.01,0,163.04,133.07,295.2,297.21,295.2,137.2,0,252.67-92.35,286.89-217.87-49.14,14.65-100.48,22.09-151.78,22.09Z"/>
        <path class="cls-4" d="M529.16,750.98c37.49-40.6,92.68-71.08,164.67-90.83,31.71-8.7,64.28-14.99,95.78-21.08,11.45-2.21,23.02-4.47,34.6-6.83-51.54-162.05-240.92-382.52-284.21-552.72-44.12,177.12-240,400.05-287.02,562.15,22.67,4.77,46.27,11.82,70.76,21.17,30.72,11.73,60.72,25.9,89.72,39.61,35.62,16.83,72.45,34.24,110,46.7,1.89.63,3.8,1.22,5.7,1.83Z"/>
        <path class="cls-7" d="M795.56,669.9c-30.91,5.98-62.88,12.16-93.43,20.53-58.88,16.15-105.13,39.65-138.18,70.13,88.87,20.83,183.72,15.93,270.25-13.23,1.97-13.74,3.02-27.78,3.02-42.07,0-13.54-1.74-27.79-4.89-42.64-12.32,2.53-24.61,4.92-36.76,7.27Z"/>
        <g class="cls-5">
          <path class="cls-3" d="M529.16,750.98c37.49-40.6,92.68-71.08,164.67-90.83,31.71-8.7,64.28-14.99,95.78-21.08,11.45-2.21,23.02-4.47,34.6-6.83-51.54-162.05-240.92-382.52-284.21-552.72-44.12,177.12-240,400.05-287.02,562.15,22.67,4.77,46.27,11.82,70.76,21.17,30.72,11.73,60.72,25.9,89.72,39.61,35.62,16.83,72.45,34.24,110,46.7,1.89.63,3.8,1.22,5.7,1.83Z"/>
        </g>
        <path class="cls-2" d="M542.9,332.85c43.77,0,86.12,3.67,127.06,11.31-55.48-91.02-109.59-184.55-129.95-264.63-20.26,81.32-74.37,175.35-129.51,265.66,41.42-7.84,88.07-12.34,132.41-12.34Z"/>
      </g>
    </g>
  </g>
</svg>